Daimajin.Monster.Of.Terror.1966.XviD-NvadR.avi 
http://www.imdb.com/title/tt0062851/

The just and fair Hanabusa clan is violently overthrown 
by the wicked Samanosuke clan, and retainer Kogenta 
escapes with the only survivors, the children Kozasa 
and Tadafumi (Yoshihiko Aoyama). They hide in a cave 
near the idol of the God Majin, a giant stone warrior.

------------------------- TRAILER --------------------------


------------------------------------------------------------
 
Ten years later, the teenaged heirs come out of hiding 
to discover that Samanosuke has enslaved the populace 
to build a huge fortress, as a base to conquer his neighbors. 
When they try to intervene, the hiding Hanabusas are captured, 
but Kozasa appeals to the idol with prayers. Samanosuke sends 
a gang of thugs to destroy the idol, and they start by 
hammering a spike into it. The wound begins to drip blood ...

--------------- SCREENSHOTS ---------------- 
http://www.postimg.com/39000/photo-38939.jpg
 
http://www.postimg.com/39000/photo-38940.jpg
 
http://www.postimg.com/39000/photo-38941.jpg
 
http://www.postimg.com/39000/photo-38942.jpg
 
http://www.postimg.com/39000/photo-38943.jpg
 
http://www.postimg.com/39000/photo-38944.jpg
--------------------------------------------

   General
   
      Complete name : Daimajin.Monster.Of.Terror.1966.XviD-NvadR.avi
      Format : AVI
      Format/Info : Audio Video Interleave
      File size : 1.00 GiB
      Duration : 1h 23mn
      Overall bit rate : 1 709 Kbps
      Writing application : VirtualDubMod 1.5.10.2 (build 2542/release)
      Writing library : VirtualDub-MPEG2 build 24586/release
      
   Video 
   
      Format : MPEG-4 Visual
      Format profile : AdvancedSimple@L5
      Format settings, BVOP : Yes
      Format settings, QPel : No
      Format settings, GMC : No warppoints
      Format settings, Matrix : Default (H.263)
      Muxing mode : Packed bitstream
      Codec ID : XVID
      Codec ID/Hint : XviD
      Duration : 1h 23mn
      Bit rate : 1 587 Kbps
      Width : 656 pixels
      Height : 272 pixels
      Display aspect ratio : 2.35:1
      Frame rate : 23.976 fps
      Resolution : 24 bits
      Colorimetry : 4:2:0
      Scan type : Progressive
      Bits/(Pixel*Frame) : 0.371
      Stream size : 953 MiB (93%)
      Writing library : XviD 63
      
   Audio 

      Format : AC-3
      Format/Info : Audio Coding 3
      Codec ID : 2000
      Duration : 1h 23mn
      Bit rate mode : Constant
      Bit rate : 112 Kbps
      Channel(s) : 2 channels
      Channel positions : L R
      Sampling rate : 48.0 KHz
      Stream size : 67.3 MiB (7%)
      Alignment : Aligned on interleaves
      Interleave, duration : 42 ms (1.00 video frame)
      Interleave, preload duration : 512 ms
      
   Encoders Note
   
      Enjoy Majin in the correct aspect ratio & intelligent
      subtitles. ADV versions are crap and out of ratio, the
      video is absolutely correct in every way.   
      
      
   Source
   
      Region 2 (Japan) DVD9 (NTSC) 720 x 480 29.970 fps 2.35:1
      Color AC3 Digital Dolby 2CH Stereo 192 Kb/s 48.0 KHz
      
         SUBTITLES ENGLISH ONLY (HARDCODED)
         
-------------- TORRENT STATS --------------- 
http://torrent-stats.info/f682/1587380ee.png